<svg
  width="512"
  height="512"
  viewBox="0 0 512 512"
  xmlns="http://www.w3.org/2000/svg"
>
  <style>
    /* Light mode */
    path {
      fill: #0F1115;
    }

    /* Dark mode */
    @media (prefers-color-scheme: dark) {
      path {
        fill: #ffffff;
      }
    }
  </style>

  <path
    fill-rule="evenodd"
    clip-rule="evenodd"
    d="M255.999 354.595C331.71 354.595 397.406 306.398 430.114 277.362C443.292 265.662 443.292 246.113 430.114 234.413C397.406 205.377 331.71 157.18 255.999 157.18C180.287 157.18 114.592 205.377 81.8838 234.413C68.7054 246.113 68.7054 265.662 81.8838 277.362C114.592 306.398 180.287 354.595 255.999 354.595ZM255.999 324.753C294.241 324.753 325.241 293.921 325.241 255.887C325.241 217.854 294.241 187.022 255.999 187.022C217.758 187.022 186.757 217.854 186.757 255.887C186.757 293.921 217.758 324.753 255.999 324.753Z"
  />
</svg>
